PathFileType	3	(X/Y/Z)	D:\Vicon Setup\UG\Test1\New Session\NewSession09.trc
DataRate	CameraRate	NumFrames	NumMarkers	Units	OrigDataRate	OrigDataStartFrame	OrigNumFrames
100.0	100.0	7	27	mm	100.0	456	911	
Frame#	Time	Sternum			LShoulder			RShoulder			LASIS			RASIS			RPSIS			LPSIS			RKneeLateral			RKneeMedial			RFibulaHead			RMidShank			RAnkleLateral			RAnkleMedial			RHeel			RMT5			RMT2			RToe			LKneeLateral			LKneeMedial			LFibulaHead			LMidShank			LAnkleLateral			LAnkleMedial			LHeel			LMT5			LMT2			LToe			
		X1	Y1	Z1	X2	Y2	Z2	X3	Y3	Z3	X4	Y4	Z4	X5	Y5	Z5	X6	Y6	Z6	X7	Y7	Z7	X8	Y8	Z8	X9	Y9	Z9	X10	Y10	Z10	X11	Y11	Z11	X12	Y12	Z12	X13	Y13	Z13	X14	Y14	Z14	X15	Y15	Z15	X16	Y16	Z16	X17	Y17	Z17	X18	Y18	Z18	X19	Y19	Z19	X20	Y20	Z20	X21	Y21	Z21	X22	Y22	Z22	X23	Y23	Z23	X24	Y24	Z24	X25	Y25	Z25	X26	Y26	Z26	X27	Y27	Z27	
456	4.55	257.9826	1385.3497	-1609.464	73.071487	1440.2085	-1497.9878	444.92459	1412.3613	-1525.5002	135.42764	995.77252	-1608.6929	395.43256	1003.8682	-1604.4182	321.61761	1018.6302	-1430.5696	191.34122	1016.3043	-1426.7156	445.40189	538.74506	-1482.3521	321.29218	497.78827	-1527.8433	455.96216	458.61459	-1473.1948	403.17706	287.30341	-1519.2468	474.68356	93.156853	-1460.0608	404.53223	119.05829	-1522.5612	405.51025	61.607437	-1404.7826	553.74384	32.421841	-1596.8398	489.08194	62.911095	-1616.4263	495.09854	44.109932	-1669.2963	87.396866	522.30627	-1504.4769	217.27504	494.25885	-1528.2756	82.274559	461.81235	-1484.601	143.74574	300.22351	-1519.7513	79.109802	100.79568	-1449.2478	156.74142	114.14967	-1499.4569	145.63744	63.665123	-1386.5398	13.531526	43.87862	-1572.8224	72.695213	61.521839	-1600.9496	58.781849	41.810642	-1660.5768
457	4.56	257.96167	1385.3414	-1609.3986	73.090897	1440.2203	-1497.9755	444.91284	1412.3641	-1525.4905	135.39542	995.78082	-1608.6437	395.38422	1003.8642	-1604.4028	321.60278	1018.6307	-1430.5389	191.32559	1016.3102	-1426.6715	445.38779	538.74231	-1482.3488	321.27023	497.78647	-1527.8333	455.94449	458.60474	-1473.201	403.16745	287.30142	-1519.2434	474.68915	93.153221	-1460.0627	404.53116	119.05708	-1522.5608	405.513	61.605267	-1404.7788	553.74451	32.419048	-1596.8416	489.08084	62.907463	-1616.426	495.09839	44.103733	-1669.2988	87.372299	522.30511	-1504.4556	217.24738	494.27075	-1528.2622	82.252533	461.81177	-1484.5798	143.73146	300.22495	-1519.7382	79.109627	100.79158	-1449.2512	156.73434	114.14978	-1499.4614	145.63367	63.663116	-1386.5439	13.533117	43.870937	-1572.8273	72.69104	61.518658	-1600.9484	58.779148	41.806957	-1660.5784
458	4.57	257.94217	1385.3435	-1609.3524	73.095184	1440.2388	-1497.9575	444.90292	1412.3644	-1525.4823	135.36433	995.78619	-1608.5878	395.33701	1003.8519	-1604.3818	321.5943	1018.6204	-1430.51	191.31627	1016.3073	-1426.6282	445.37738	538.73315	-1482.3453	321.24948	497.78421	-1527.8219	455.93594	458.58997	-1473.1979	403.15857	287.29868	-1519.2386	474.6976	93.143562	-1460.0659	404.52988	119.05594	-1522.5603	405.52206	61.594669	-1404.7766	553.75031	32.410732	-1596.8408	489.08487	62.896431	-1616.4219	495.1033	44.09108	-1669.295	87.353867	522.29987	-1504.4293	217.22511	494.27338	-1528.239	82.241241	461.80414	-1484.5583	143.71768	300.22528	-1519.7244	79.11776	100.78037	-1449.2533	156.73497	114.14218	-1499.4589	145.6394	63.651749	-1386.5503	13.535806	43.863487	-1572.8312	72.687492	61.514877	-1600.9474	58.780746	41.798046	-1660.5762
459	4.58	257.92471	1385.3571	-1609.3221	73.08712	1440.2607	-1497.9341	444.89655	1412.3655	-1525.4742	135.33463	995.78851	-1608.5262	395.29129	1003.8352	-1604.3558	321.59009	1018.5997	-1430.4795	191.30997	1016.2968	-1426.5829	445.36957	538.71857	-1482.3409	321.23181	497.78003	-1527.8088	455.93326	458.57092	-1473.1887	403.14969	287.29645	-1519.2345	474.70563	93.130997	-1460.069	404.52756	119.05479	-1522.5596	405.53473	61.576607	-1404.7775	553.75897	32.3988	-1596.8373	489.09229	62.879852	-1616.4141	495.11151	44.073994	-1669.2855	87.340813	522.29187	-1504.3997	217.20836	494.26834	-1528.2058	82.238663	461.79007	-1484.5365	143.70422	300.22543	-1519.7117	79.132217	100.76398	-1449.2539	156.74149	114.12875	-1499.4503	145.6534	63.632652	-1386.558	13.537781	43.857735	-1572.833	72.684799	61.512432	-1600.9474	58.784626	41.787117	-1660.5721
460	4.59	257.90845	1385.3787	-1609.3002	73.072487	1440.2833	-1497.9072	444.8912	1412.3711	-1525.4652	135.30553	995.78973	-1608.4625	395.24658	1003.8193	-1604.326	321.58755	1018.574	-1430.4453	191.30339	1016.283	-1426.5326	445.36179	538.70221	-1482.3348	321.21698	497.77347	-1527.7953	455.93277	458.5509	-1473.1781	403.14014	287.29529	-1519.2319	474.71097	93.120468	-1460.0692	404.5238	119.05415	-1522.5587	405.54721	61.555939	-1404.7825	553.76703	32.387066	-1596.8322	489.09991	62.862301	-1616.4044	495.12003	44.056683	-1669.2732	87.331055	522.28339	-1504.3684	217.19504	494.26028	-1528.167	82.238922	461.77301	-1484.514	143.69046	300.2261	-1519.7014	79.148598	100.74541	-1449.2533	156.75049	114.11442	-1499.4391	145.67068	63.611053	-1386.5646	13.53737	43.853996	-1572.8324	72.682701	61.512333	-1600.9481	58.788078	41.77837	-1660.5681
461	4.6	257.89288	1385.4055	-1609.2806	73.056595	1440.3036	-1497.8776	444.88354	1412.3843	-1525.4547	135.27638	995.79193	-1608.3998	395.20309	1003.8083	-1604.2944	321.5835	1018.5512	-1430.4073	191.29419	1016.2714	-1426.4758	445.35132	538.68945	-1482.3262	321.20416	497.76538	-1527.7816	455.93137	458.53461	-1473.1685	403.12946	287.29507	-1519.2294	474.71222	93.11615	-1460.0668	404.51895	119.05477	-1522.5579	405.5556	61.539886	-1404.7908	553.771	32.379894	-1596.8279	489.10446	62.849819	-1616.3965	495.12506	44.045036	-1669.2631	87.321846	522.27673	-1504.3386	217.18253	494.2547	-1528.1298	82.235428	461.7579	-1484.4902	143.67618	300.22754	-1519.693	79.162125	100.72862	-1449.2522	156.75787	114.10452	-1499.4298	145.68483	63.594437	-1386.568	13.534192	43.85183	-1572.8297	72.680573	61.514248	-1600.9487	58.789204	41.775349	-1660.5654
462	4.61	257.87827	1385.4354	-1609.2603	73.042946	1440.321	-1497.8445	444.87305	1412.4056	-1525.4425	135.24722	995.79498	-1608.3381	395.16202	1003.8027	-1604.2623	321.57486	1018.5381	-1430.3669	191.28149	1016.2665	-1426.4137	445.33652	538.68353	-1482.3141	321.19266	497.75696	-1527.7672	455.92664	458.52515	-1473.1611	403.11823	287.29529	-1519.2251	474.7099	93.119316	-1460.0635	404.51419	119.0565	-1522.5575	405.55746	61.534256	-1404.7988	553.76892	32.379932	-1596.8264	489.10385	62.846012	-1616.3926	495.12436	44.043144	-1669.2588	87.310211	522.27417	-1504.3109	217.16954	494.25443	-1528.0994	82.224602	461.7485	-1484.4661	143.66243	300.22961	-1519.6853	79.169884	100.71691	-1449.2513	156.76038	114.10139	-1499.4243	145.69116	63.588017	-1386.566	13.52967	43.850838	-1572.8267	72.678246	61.516655	-1600.949	58.787369	41.778763	-1660.5648
